<svg xmlns="http://www.w3.org/2000/svg" viewBox="0 0 512 512">
  <g>
    <circle fill="#313293" cx="255.7" cy="256.5" r="230" />
    <circle fill="#fff" cx="255.7" cy="256.5" r="151" />
    <path fill="#e2151a" d="M263,123.4c31.8,1.7,60.6,14.6,82.6,34.7l-32.3,32.3c-1.8-0.6-3.8-1-5.8-1c-9.7,0-17.5,7.8-17.5,17.5&#10;&#9;&#9;c0,2,0.4,4,1,5.8l-14,14c-4.2-2.8-8.9-4.8-14-5.8v-13.3c5.9-2.8,9.9-8.8,9.9-15.8c0-7-4.1-13-9.9-15.8V123.4L263,123.4z&#10;&#9;&#9; M356.2,168.9L324,201.1c0.6,1.8,1,3.8,1,5.8c0,9.7-7.9,17.5-17.5,17.5c-2,0-4-0.4-5.8-1l-14,14c2.7,4.2,4.7,8.9,5.6,14h14.5&#10;&#9;&#9;c2.9-5.5,8.8-9.3,15.5-9.3c6.7,0,12.5,3.8,15.5,9.3h50.1C387.7,219.9,375.6,191.2,356.2,168.9L356.2,168.9z M388.6,266.6&#10;&#9;&#9;c-2.3,30.8-15.1,58.7-34.8,80.1l-32.3-32.3c0.6-1.8,1-3.8,1-5.8c0-9.7-7.8-17.5-17.5-17.5c-2,0-4,0.3-5.8,1l-11.9-11.9&#10;&#9;&#9;c2.8-4,4.8-8.6,5.9-13.5h14.1c2.7,6.2,8.9,10.6,16.1,10.6c7.2,0,13.4-4.4,16.1-10.6H388.6L388.6,266.6z M343,357.2l-32.2-32.2&#10;&#9;&#9;c-1.8,0.6-3.8,1-5.8,1c-9.7,0-17.5-7.8-17.5-17.5c0-2.1,0.4-4,1-5.8l-12.1-12.1c-4,2.6-8.5,4.4-13.4,5.3v19c1.9,0.8,3.6,2,5.1,3.6&#10;&#9;&#9;c6.8,6.8,6.8,17.9,0,24.8c-1.5,1.5-3.3,2.7-5.1,3.6v42.6C293.5,387.9,321.3,376,343,357.2L343,357.2z M247.9,389.5&#10;&#9;&#9;c-30.4-1.8-58.1-13.7-79.7-32.6l32.3-32.3c1.6,0.5,3.2,0.7,4.9,0.7c9.7,0,17.5-7.9,17.5-17.5c0-1.7-0.2-3.4-0.7-4.9l12.5-12.5&#10;&#9;&#9;c3.9,2.6,8.3,4.5,13.1,5.5v19.5c-1.6,0.8-3.2,1.9-4.5,3.3c-6.8,6.8-6.8,17.9,0,24.8c1.4,1.4,2.9,2.4,4.5,3.3V389.5L247.9,389.5z&#10;&#9;&#9; M157.4,346.4l31.9-31.9c-0.9-2.1-1.3-4.3-1.3-6.7c0-9.7,7.8-17.5,17.5-17.5c2.4,0,4.6,0.5,6.7,1.3l11.9-11.9&#10;&#9;&#9;c-2.6-3.9-4.6-8.4-5.6-13.1h-21.8c-0.8,1.8-2,3.4-3.4,4.8c-6.8,6.8-17.9,6.8-24.8,0c-1.5-1.5-2.6-3.1-3.4-4.8h-42.2&#10;&#9;&#9;C125.2,297.2,137.8,325,157.4,346.4L157.4,346.4z M122.6,251.4c1.2-31.4,13.2-60,32.4-82.2l35.5,35.5c-0.8,2-1.3,4.2-1.3,6.6&#10;&#9;&#9;c0,9.7,7.8,17.5,17.5,17.5c2.3,0,4.5-0.5,6.6-1.3l10.3,10.3c-2.6,4.1-4.5,8.6-5.4,13.6h-21.6c-0.8-1.7-2-3.4-3.4-4.8&#10;&#9;&#9;c-6.8-6.8-17.9-6.8-24.8,0c-1.4,1.4-2.6,3.1-3.4,4.8H122.6L122.6,251.4z M165.6,158.4l36.2,36.2c1.6-0.5,3.3-0.7,5.1-0.7&#10;&#9;&#9;c9.7,0,17.5,7.8,17.5,17.5c0,1.8-0.3,3.5-0.7,5.1l10.6,10.6c4.1-2.8,8.7-4.8,13.7-5.9v-13.4c-5.9-2.8-10-8.8-10-15.8&#10;&#9;&#9;s4.1-13,10-15.8v-52.6C216.2,125.3,187.5,138.2,165.6,158.4z"/>
  </g>
</svg>